<svg width="25" height="25" viewBox="0 0 25 25" fill="none" xmlns="http://www.w3.org/2000/svg">
<path d="M22.7309 7.74063C22.6351 7.60216 22.5072 7.48899 22.358 7.41079C22.2089 7.3326 22.0431 7.29173 21.8747 7.29167H7.63822L6.43613 4.40625C6.27852 4.02628 6.01162 3.70166 5.66928 3.47356C5.32695 3.24546 4.92459 3.12414 4.51322 3.125H2.08301V5.20834H4.51322L9.45488 17.0677C9.53404 17.2575 9.66757 17.4195 9.83866 17.5335C10.0097 17.6475 10.2107 17.7084 10.4163 17.7083H18.7497C19.184 17.7083 19.5726 17.4385 19.7257 17.0333L22.8507 8.7C22.9098 8.54232 22.9297 8.37266 22.9089 8.20558C22.888 8.03849 22.8269 7.87895 22.7309 7.74063ZM18.0278 15.625H11.1111L8.50697 9.375H20.3715L18.0278 15.625Z" fill="#9D1621"/>
<path d="M10.9375 21.875C11.8004 21.875 12.5 21.1754 12.5 20.3125C12.5 19.4496 11.8004 18.75 10.9375 18.75C10.0746 18.75 9.375 19.4496 9.375 20.3125C9.375 21.1754 10.0746 21.875 10.9375 21.875Z" fill="#9D1621"/>
<path d="M18.2295 21.875C19.0924 21.875 19.792 21.1754 19.792 20.3125C19.792 19.4496 19.0924 18.75 18.2295 18.75C17.3665 18.75 16.667 19.4496 16.667 20.3125C16.667 21.1754 17.3665 21.875 18.2295 21.875Z" fill="#9D1621"/>
</svg>
