<svg width="23" height="23" viewBox="0 0 23 23" fill="none" xmlns="http://www.w3.org/2000/svg">
<path fill-rule="evenodd" clip-rule="evenodd" d="M20.3231 18.1809C19.9437 18.1809 19.5908 18.2823 19.279 18.4485L14.4864 13.6382C14.7908 13.2118 15.007 12.722 15.107 12.1882H16.7731C16.9253 12.6173 17.2073 12.9882 17.5799 13.2497C17.9525 13.5111 18.3974 13.65 18.8526 13.647C20.0717 13.647 21.0584 12.6882 21.0584 11.5029C21.0584 10.3176 20.0717 9.35881 18.8526 9.35881C18.3877 9.35597 17.934 9.50105 17.557 9.77308C17.18 10.0451 16.8993 10.43 16.7555 10.872H15.1099C15.0233 10.3701 14.8318 9.89211 14.5481 9.4691L19.3864 4.61322C19.6717 4.7441 19.9864 4.82351 20.3231 4.82351C21.5423 4.82351 22.529 3.86469 22.529 2.6794C22.529 1.4941 21.5423 0.535278 20.3231 0.535278C19.1055 0.535278 18.1202 1.4941 18.1202 2.6794C18.1202 3.06322 18.2305 3.4191 18.4129 3.73087L13.6246 8.53822C13.1876 8.22775 12.6875 8.01738 12.1599 7.92204V6.18528C13.0526 5.91175 13.7055 5.11028 13.7055 4.14998C13.7055 2.96469 12.7187 2.00587 11.4996 2.00587C10.282 2.00587 9.29668 2.96469 9.29668 4.14998C9.29668 5.11322 9.95109 5.9191 10.8526 6.18969V7.92057C10.3173 8.01469 9.82315 8.22204 9.39521 8.52057L4.60109 3.71028C4.77462 3.40293 4.88197 3.05587 4.88197 2.68087C4.88197 1.49557 3.89521 0.536749 2.67609 0.536749C1.45844 0.536749 0.47315 1.49557 0.47315 2.68087C0.47315 3.86616 1.45844 4.82498 2.67609 4.82498C3.02021 4.82498 3.34521 4.74116 3.63491 4.6044L8.4658 9.45292C8.17756 9.87204 7.9805 10.3544 7.88786 10.875H6.24374C6.09984 10.4327 5.81893 10.0476 5.44165 9.77558C5.06438 9.50353 4.61033 9.3586 4.14521 9.36175C2.92756 9.36175 1.94227 10.3206 1.94227 11.5059C1.94227 12.6912 2.92756 13.65 4.14521 13.65C5.1158 13.65 5.93197 13.0382 6.22462 12.1912H7.8908C7.9908 12.7338 8.2158 13.2309 8.52903 13.6617L3.74374 18.4647C3.41628 18.2839 3.04865 18.1884 2.67462 18.1867C1.45697 18.1867 0.47168 19.1456 0.47168 20.3309C0.47168 21.5162 1.45697 22.475 2.67462 22.475C3.89374 22.475 4.8805 21.5162 4.8805 20.3309C4.8805 19.9985 4.79668 19.6882 4.65991 19.4103L9.47609 14.5735C9.88344 14.8441 10.3496 15.0279 10.8511 15.1162V16.8206C9.95109 17.0912 9.29521 17.8956 9.29521 18.8603C9.29521 20.0456 10.2805 21.0044 11.4981 21.0044C12.7173 21.0044 13.704 20.0456 13.704 18.8603C13.704 17.9015 13.0526 17.0985 12.1584 16.825V15.1147C12.6643 15.0235 13.1334 14.8353 13.5437 14.5603L18.3511 19.3853C18.1996 19.6775 18.1199 20.0017 18.1187 20.3309C18.1187 21.5162 19.104 22.475 20.3217 22.475C21.5408 22.475 22.5276 21.5162 22.5276 20.3309C22.5276 19.1456 21.5423 18.1809 20.3231 18.1809Z" fill="#9D1621"/>
</svg>
