<svg width="25" height="17" viewBox="0 0 25 17" fill="none" xmlns="http://www.w3.org/2000/svg">
<path d="M20.8333 14.75C21.9792 14.75 22.9062 13.8125 22.9062 12.6666L22.9167 2.24996C22.9167 1.10413 21.9792 0.166626 20.8333 0.166626H4.16667C3.02083 0.166626 2.08333 1.10413 2.08333 2.24996V12.6666C2.08333 13.8125 3.02083 14.75 4.16667 14.75H1.04167C0.46875 14.75 0 15.2187 0 15.7916C0 16.3645 0.46875 16.8333 1.04167 16.8333H23.9583C24.5312 16.8333 25 16.3645 25 15.7916C25 15.2187 24.5312 14.75 23.9583 14.75H20.8333ZM5.20833 2.24996H19.7917C20.3646 2.24996 20.8333 2.71871 20.8333 3.29163V11.625C20.8333 12.1979 20.3646 12.6666 19.7917 12.6666H5.20833C4.63542 12.6666 4.16667 12.1979 4.16667 11.625V3.29163C4.16667 2.71871 4.63542 2.24996 5.20833 2.24996Z" fill="#9D1621"/>
</svg>
