<svg width="15" height="23" viewBox="0 0 15 23" fill="none" xmlns="http://www.w3.org/2000/svg">
<path d="M12.6125 1.79125C11.1875 0.76375 9.3975 0.25 7.2425 0.25C5.60375 0.25 4.22 0.61125 3.09625 1.335C1.3125 2.4675 0.365 4.39125 0.25 7.10375H4.38375C4.38375 6.3125 4.615 5.55375 5.075 4.81875C5.53625 4.08625 6.31875 3.72 7.4225 3.72C8.545 3.72 9.31875 4.0175 9.74 4.61125C10.1637 5.2075 10.375 5.86625 10.375 6.58875C10.375 7.21875 10.06 7.795 9.67875 8.3175C9.45155 8.64187 9.17238 8.92653 8.8525 9.16C8.8525 9.16 6.61125 10.5975 5.6275 11.7525C5.0575 12.4212 5.00625 13.425 4.955 14.8625C4.9525 14.965 4.99125 15.1775 5.34875 15.1775H8.5625C8.8825 15.1775 8.94875 14.9412 8.9525 14.835C8.975 14.3125 9.0325 14.0437 9.12875 13.7413C9.30875 13.17 9.80125 12.6725 10.3525 12.2425L11.49 11.4587C12.5175 10.6575 13.3362 10.0013 13.6987 9.48625C14.3162 8.64125 14.7512 7.59875 14.7512 6.36125C14.75 4.3425 14.0375 2.82125 12.6125 1.79125ZM7.17625 17.655C5.7525 17.6112 4.5775 18.5975 4.5325 20.1425C4.48875 21.685 5.605 22.7062 7.03 22.7475C8.51625 22.7912 9.66 21.8387 9.70625 20.2938C9.74875 18.7488 8.66375 17.6987 7.17625 17.655Z" fill="#9D1621"/>
</svg>
