<svg width="13" height="7" viewBox="0 0 13 7" fill="none" xmlns="http://www.w3.org/2000/svg">
<path fill-rule="evenodd" clip-rule="evenodd" d="M6.16872 0.355608C6.21226 0.311955 6.26399 0.277321 6.32094 0.25369C6.37788 0.230059 6.43893 0.217896 6.50059 0.217896C6.56225 0.217896 6.6233 0.230059 6.68025 0.25369C6.7372 0.277321 6.78892 0.311955 6.83247 0.355608L12.4575 5.98061C12.5455 6.06863 12.5949 6.18801 12.5949 6.31248C12.5949 6.43696 12.5455 6.55634 12.4575 6.64436C12.3694 6.73238 12.2501 6.78183 12.1256 6.78183C12.0011 6.78183 11.8817 6.73238 11.7937 6.64436L6.50059 1.3503L1.20747 6.64436C1.11945 6.73238 1.00007 6.78183 0.875592 6.78183C0.751115 6.78183 0.631736 6.73238 0.543717 6.64436C0.455698 6.55634 0.40625 6.43696 0.40625 6.31248C0.40625 6.18801 0.455698 6.06863 0.543717 5.98061L6.16872 0.355608Z" fill="black"/>
</svg>
